<?xml version="1.0" encoding="UTF-8"?>
<svg version="1.1" xmlns="http://www.w3.org/2000/svg" width="500" height="500">
<path d="M0 0 C0 9.9 0 19.8 0 30 C-1.65 30.33 -3.3 30.66 -5 31 C-6.74506615 29.25493385 -6.23282784 26.80960857 -6.31640625 24.43359375 C-6.35830078 23.30888672 -6.40019531 22.18417969 -6.44335938 21.02539062 C-6.48267578 19.84138672 -6.52199219 18.65738281 -6.5625 17.4375 C-6.60568359 16.24962891 -6.64886719 15.06175781 -6.69335938 13.83789062 C-6.79983546 10.89205216 -6.90184841 7.9461257 -7 5 C-7.99 5.495 -7.99 5.495 -9 6 C-9.66 5.67 -10.32 5.34 -11 5 C-11 5.99 -11 6.98 -11 8 C-9.68 8 -8.36 8 -7 8 C-7 9.65 -7 11.3 -7 13 C-7.99 13.495 -7.99 13.495 -9 14 C-9.66 13.67 -10.32 13.34 -11 13 C-11 18.61 -11 24.22 -11 30 C-12.65 30.33 -14.3 30.66 -16 31 C-16.167041 28.3541898 -16.33365066 25.70835369 -16.5 23.0625 C-16.54769531 22.30775391 -16.59539062 21.55300781 -16.64453125 20.77539062 C-17 15.11328125 -17 15.11328125 -17 14 C-19.64 14 -22.28 14 -25 14 C-26.04882391 17.56071312 -26.30386953 21.05527897 -26.5625 24.75 C-26.64628906 25.92046875 -26.73007813 27.0909375 -26.81640625 28.296875 C-26.87699219 29.18890625 -26.93757812 30.0809375 -27 31 C-28.65 31 -30.3 31 -32 31 C-32 23.41 -32 15.82 -32 8 C-30.35 8 -28.7 8 -27 8 C-26.67 8.66 -26.34 9.32 -26 10 C-25.34 9.34 -24.68 8.68 -24 8 C-21.31160615 7.73008094 -18.70858064 7.91262643 -16 8 C-15.87625 6.865625 -15.7525 5.73125 -15.625 4.5625 C-15.315625 2.7990625 -15.315625 2.7990625 -15 1 C-10.51793698 -1.24103151 -5.01109879 0 0 0 Z " fill="#B3B3B3" transform="translate(246,243)"/>
<path d="M0 0 C1.4540625 0.0309375 1.4540625 0.0309375 2.9375 0.0625 C7.48990089 8.44214058 10.67830824 17.11867145 13.9375 26.0625 C14.2675 20.1225 14.5975 14.1825 14.9375 8.0625 C16.9175 8.0625 18.8975 8.0625 20.9375 8.0625 C20.9375 15.6525 20.9375 23.2425 20.9375 31.0625 C11.85546875 31.55078125 11.85546875 31.55078125 8.9375 31.0625 C6.23165155 27.80763882 5.9375 26.36482099 5.9375 22.0625 C1.9775 22.0625 -1.9825 22.0625 -6.0625 22.0625 C-6.18625 22.990625 -6.31 23.91875 -6.4375 24.875 C-7.0625 28.0625 -7.0625 28.0625 -9.0625 31.0625 C-11.6875 31.25 -11.6875 31.25 -14.0625 31.0625 C-13.47299331 26.89467226 -12.51733907 23.19677514 -11.03125 19.26171875 C-10.63292969 18.20275391 -10.23460937 17.14378906 -9.82421875 16.05273438 C-9.40785156 14.96283203 -8.99148437 13.87292969 -8.5625 12.75 C-8.14613281 11.64076172 -7.72976562 10.53152344 -7.30078125 9.38867188 C-3.7768593 0.07707876 -3.7768593 0.07707876 0 0 Z M-1.0625 8.0625 C-2.0525 11.3625 -3.0425 14.6625 -4.0625 18.0625 C-1.4225 18.0625 1.2175 18.0625 3.9375 18.0625 C2.9475 14.7625 1.9575 11.4625 0.9375 8.0625 C0.2775 8.0625 -0.3825 8.0625 -1.0625 8.0625 Z " fill="#C3C3C3" transform="translate(191.0625,242.9375)"/>
<path d="M0 0 C1.98 0 3.96 0 6 0 C6.99 3.96 7.98 7.92 9 12 C10.32 8.04 11.64 4.08 13 0 C14.98 0 16.96 0 19 0 C20.13764351 4.26616316 21 7.56486311 21 12 C21.66 12 22.32 12 23 12 C23.13277344 11.30132812 23.26554687 10.60265625 23.40234375 9.8828125 C23.57894531 8.97273438 23.75554687 8.06265625 23.9375 7.125 C24.11152344 6.22007812 24.28554688 5.31515625 24.46484375 4.3828125 C25 2 25 2 26 0 C27.65 0 29.3 0 31 0 C30.50387003 8.10345611 27.679915 15.40525933 25 23 C22.625 23.1875 22.625 23.1875 20 23 C17.54176828 19.31265242 16.98757384 16.30300029 16 12 C15.79503906 12.62648438 15.59007812 13.25296875 15.37890625 13.8984375 C15.10949219 14.71570313 14.84007812 15.53296875 14.5625 16.375 C14.29566406 17.18710937 14.02882813 17.99921875 13.75390625 18.8359375 C13 21 13 21 12 23 C10.35 23 8.7 23 7 23 C3.16344059 16.09419306 -0.42553688 7.99715867 0 0 Z " fill="#C9C9C9" transform="translate(269,251)"/>
<path d="M0 0 C2.3828125 -0.29296875 2.3828125 -0.29296875 5.125 -0.1875 C6.03507812 -0.16042969 6.94515625 -0.13335937 7.8828125 -0.10546875 C8.58148438 -0.07066406 9.28015625 -0.03585938 10 0 C8.48574094 4.12558335 6.46400153 7.84472962 4.25 11.625 C3.53165266 12.86536496 2.81421512 14.10625724 2.09765625 15.34765625 C1.7433252 15.96141113 1.38899414 16.57516602 1.02392578 17.20751953 C-0.93581539 20.63823477 -2.80464884 24.11810056 -4.67578125 27.59765625 C-5.11277344 28.39042969 -5.54976562 29.18320312 -6 30 C-6.4434375 30.92039062 -6.886875 31.84078125 -7.34375 32.7890625 C-9 35 -9 35 -11.48046875 35.48828125 C-12.82044922 35.40126953 -12.82044922 35.40126953 -14.1875 35.3125 C-15.08855469 35.26738281 -15.98960937 35.22226562 -16.91796875 35.17578125 C-17.94857422 35.08876953 -17.94857422 35.08876953 -19 35 C-16.56481454 23.04296579 -6.75755211 10.13632816 0 0 Z " fill="#D1D1D1" transform="translate(150,238)"/>
<path d="M0 0 C3.413238 2.98658325 4.7372422 5.09677006 6 9.4375 C6 14.48439827 4.62120515 18.06702462 1.375 21.9375 C-2.40545911 23.62875802 -5.94295787 23.77210144 -10 23 C-13.06881816 21.28095248 -15.40357084 19.19285833 -17 16 C-17.57717357 11.26906912 -17.43416625 7.85282657 -15.25 3.5625 C-10.80737352 -1.49715794 -6.29491308 -1.90754942 0 0 Z M-9.75 5 C-11.73608212 8.17773139 -11.55367968 11.35936647 -11 15 C-9.97578739 17.10938785 -9.97578739 17.10938785 -8 18 C-5.5 18.58333333 -5.5 18.58333333 -3 18 C-0.95173938 16.52040427 -0.95173938 16.52040427 0 14 C-0.12317693 10.48945736 -0.32129553 8.00189707 -2.3125 5.0625 C-4.89765841 3.43480767 -7.11488602 3.49422058 -9.75 5 Z " fill="#CDCDCD" transform="translate(264,251)"/>
<path d="M0 0 C0.66 0 1.32 0 2 0 C2.40992188 0.75925781 2.81984375 1.51851562 3.2421875 2.30078125 C3.78101563 3.29464844 4.31984375 4.28851563 4.875 5.3125 C5.67550781 6.79169922 5.67550781 6.79169922 6.4921875 8.30078125 C8.00722126 11.09586458 8.00722126 11.09586458 10 14 C10 16.97 10 19.94 10 23 C2.74 23 -4.52 23 -12 23 C-11.0596803 19.23872119 -10.3652875 17.01778061 -8 14 C-4.8125 13.1875 -4.8125 13.1875 -2 13 C-2 12.34 -2 11.68 -2 11 C-2.66 11 -3.32 11 -4 11 C-5 8 -5 8 -4.07421875 5.95703125 C-3.61660156 5.24933594 -3.15898437 4.54164063 -2.6875 3.8125 C-2.23761719 3.09707031 -1.78773438 2.38164062 -1.32421875 1.64453125 C-0.88722656 1.10183594 -0.45023438 0.55914062 0 0 Z " fill="#D1D1D1" transform="translate(160,250)"/>
<path d="M0 0 C1.98 0 3.96 0 6 0 C6.99 3.96 7.98 7.92 9 12 C9.66 11.34 10.32 10.68 11 10 C11.99 10.33 12.98 10.66 14 11 C14.33 10.34 14.66 9.68 15 9 C14.40380045 13.86896303 13.43023178 18.32790951 12 23 C10.35 23 8.7 23 7 23 C3.16344059 16.09419306 -0.42553688 7.99715867 0 0 Z " fill="#C0C0C0" transform="translate(269,251)"/>
<path d="M0 0 C1.32 0 2.64 0 4 0 C4 9.9 4 19.8 4 30 C2.68 30 1.36 30 0 30 C0 20.1 0 10.2 0 0 Z " fill="#FBFBFB" transform="translate(241,244)"/>
<path d="M0 0 C0.99 0 1.98 0 3 0 C3 0.99 3 1.98 3 3 C3.99 3.33 4.98 3.66 6 4 C5.34 9.28 4.68 14.56 4 20 C2.68 20 1.36 20 0 20 C0 13.4 0 6.8 0 0 Z " fill="#F1F1F1" transform="translate(215,252)"/>
<path d="M0 0 C1.32 0 2.64 0 4 0 C4 6.93 4 13.86 4 21 C2.68 21 1.36 21 0 21 C0 14.07 0 7.14 0 0 Z " fill="#F9F9F9" transform="translate(207,252)"/>
<path d="M0 0 C1.98 0 3.96 0 6 0 C6 1.65 6 3.3 6 5 C4.34385343 5.38218767 2.67542976 5.71395102 1 6 C0 5 0 5 -0.0625 2.4375 C-0.041875 1.633125 -0.02125 0.82875 0 0 Z " fill="#B1B1B1" transform="translate(206,243)"/>
<path d="M0 0 C1.65 0 3.3 0 5 0 C4.67 2.64 4.34 5.28 4 8 C3.01 7.01 2.02 6.02 1 5 C0.01 5.495 0.01 5.495 -1 6 C-0.67 4.02 -0.34 2.04 0 0 Z " fill="#B6B6B6" transform="translate(295,251)"/>
<path d="M0 0 C-0.556875 0.268125 -1.11375 0.53625 -1.6875 0.8125 C-5.71835758 2.88239984 -9.4233536 5.21816391 -13 8 C-12.06601394 4.85841051 -11.33205059 3.2674852 -8.75 1.1875 C-5.62298529 -0.16280181 -3.3717092 -0.23523553 0 0 Z " fill="#888888" transform="translate(261,250)"/>
<path d="M0 0 C0.33 0 0.66 0 1 0 C1 4.62 1 9.24 1 14 C-0.32 14 -1.64 14 -3 14 C-3 13.34 -3 12.68 -3 12 C-2.34 11.67 -1.68 11.34 -1 11 C-0.5316735 8.41394668 -0.5316735 8.41394668 -0.375 5.4375 C-0.30023438 4.42558594 -0.22546875 3.41367187 -0.1484375 2.37109375 C-0.09945312 1.58863281 -0.05046875 0.80617188 0 0 Z " fill="#C1C1C1" transform="translate(244,260)"/>
<path d="" fill="#000000" transform="translate(0,0)"/>
</svg>
